<mxfile host="app.diagrams.net" modified="2023-12-21T01:32:55.277Z" agent="Mozilla/5.0 (Windows NT 10.0; Win64; x64) AppleWebKit/537.36 (KHTML, like Gecko) Chrome/120.0.0.0 Safari/537.36" etag="1krOPIPn57ktFvsXS9sE" version="22.1.11" type="device">
  <diagram name="Side-1" id="u3l_21_th3xPr0uGo96I">
    <mxGraphModel dx="1434" dy="738" grid="0" gridSize="10" guides="1" tooltips="1" connect="1" arrows="1" fold="1" page="1" pageScale="1" pageWidth="827" pageHeight="1169" background="#ffffff" math="0" shadow="0">
      <root>
        <mxCell id="0" />
        <mxCell id="1" parent="0" />
        <mxCell id="LwIb5G4clstaogvx7fHu-1" value="" style="edgeStyle=orthogonalEdgeStyle;rounded=0;orthogonalLoop=1;jettySize=auto;html=1;entryX=0.5;entryY=0;entryDx=0;entryDy=0;" edge="1" parent="1" source="LwIb5G4clstaogvx7fHu-4" target="LwIb5G4clstaogvx7fHu-5">
          <mxGeometry relative="1" as="geometry">
            <mxPoint x="260.5" y="175" as="targetPoint" />
          </mxGeometry>
        </mxCell>
        <mxCell id="LwIb5G4clstaogvx7fHu-2" value="" style="edgeStyle=orthogonalEdgeStyle;rounded=0;orthogonalLoop=1;jettySize=auto;html=1;entryX=0.5;entryY=0;entryDx=0;entryDy=0;" edge="1" parent="1" source="LwIb5G4clstaogvx7fHu-4" target="LwIb5G4clstaogvx7fHu-7">
          <mxGeometry relative="1" as="geometry">
            <mxPoint x="638.5" y="175" as="targetPoint" />
          </mxGeometry>
        </mxCell>
        <mxCell id="LwIb5G4clstaogvx7fHu-3" value="" style="edgeStyle=orthogonalEdgeStyle;rounded=0;orthogonalLoop=1;jettySize=auto;html=1;entryX=0.5;entryY=0;entryDx=0;entryDy=0;" edge="1" parent="1" source="LwIb5G4clstaogvx7fHu-4" target="LwIb5G4clstaogvx7fHu-6">
          <mxGeometry relative="1" as="geometry">
            <mxPoint x="449.5" y="173" as="targetPoint" />
          </mxGeometry>
        </mxCell>
        <mxCell id="LwIb5G4clstaogvx7fHu-4" value="Home page&lt;br&gt;(public timeline)" style="rounded=1;whiteSpace=wrap;html=1;" vertex="1" parent="1">
          <mxGeometry x="40" y="88" width="120" height="60" as="geometry" />
        </mxCell>
        <mxCell id="LwIb5G4clstaogvx7fHu-5" value="My Timeline" style="rounded=1;whiteSpace=wrap;html=1;" vertex="1" parent="1">
          <mxGeometry x="239.5" y="160" width="120" height="60" as="geometry" />
        </mxCell>
        <mxCell id="LwIb5G4clstaogvx7fHu-6" value="About Me" style="rounded=1;whiteSpace=wrap;html=1;" vertex="1" parent="1">
          <mxGeometry x="439.5" y="160" width="120" height="60" as="geometry" />
        </mxCell>
        <mxCell id="LwIb5G4clstaogvx7fHu-7" value="Log Out" style="rounded=1;whiteSpace=wrap;html=1;" vertex="1" parent="1">
          <mxGeometry x="639.5" y="160" width="120" height="60" as="geometry" />
        </mxCell>
        <mxCell id="LwIb5G4clstaogvx7fHu-8" value="" style="endArrow=none;html=1;rounded=0;exitX=0.25;exitY=1;exitDx=0;exitDy=0;entryX=0;entryY=0.5;entryDx=0;entryDy=0;" edge="1" parent="1" source="LwIb5G4clstaogvx7fHu-4" target="LwIb5G4clstaogvx7fHu-16">
          <mxGeometry width="50" height="50" relative="1" as="geometry">
            <mxPoint x="295" y="257" as="sourcePoint" />
            <mxPoint x="70.5" y="470" as="targetPoint" />
            <Array as="points">
              <mxPoint x="70" y="540" />
            </Array>
          </mxGeometry>
        </mxCell>
        <mxCell id="LwIb5G4clstaogvx7fHu-9" value="Sort cheeps&lt;br&gt;(newest, oldest)" style="ellipse;whiteSpace=wrap;html=1;" vertex="1" parent="1">
          <mxGeometry x="92" y="161.5" width="100.5" height="60" as="geometry" />
        </mxCell>
        <mxCell id="LwIb5G4clstaogvx7fHu-10" value="Post cheep" style="ellipse;whiteSpace=wrap;html=1;" vertex="1" parent="1">
          <mxGeometry x="92" y="228.5" width="100.5" height="60" as="geometry" />
        </mxCell>
        <mxCell id="LwIb5G4clstaogvx7fHu-11" value="Delete cheep" style="ellipse;whiteSpace=wrap;html=1;" vertex="1" parent="1">
          <mxGeometry x="92" y="298.5" width="100.5" height="60" as="geometry" />
        </mxCell>
        <mxCell id="LwIb5G4clstaogvx7fHu-12" value="" style="endArrow=none;html=1;rounded=0;exitX=0;exitY=0.5;exitDx=0;exitDy=0;" edge="1" parent="1" source="LwIb5G4clstaogvx7fHu-9">
          <mxGeometry width="50" height="50" relative="1" as="geometry">
            <mxPoint x="329.5" y="259.5" as="sourcePoint" />
            <mxPoint x="69.5" y="191.5" as="targetPoint" />
          </mxGeometry>
        </mxCell>
        <mxCell id="LwIb5G4clstaogvx7fHu-13" value="Delete cheeps" style="ellipse;whiteSpace=wrap;html=1;" vertex="1" parent="1">
          <mxGeometry x="289" y="300" width="100.5" height="60" as="geometry" />
        </mxCell>
        <mxCell id="LwIb5G4clstaogvx7fHu-14" value="&lt;br&gt;&lt;br&gt;Deletes all the users information from the site&lt;br&gt;(Cheeps, Follow, Reactions and personal information)" style="shape=note;whiteSpace=wrap;html=1;backgroundOutline=1;darkOpacity=0.05;" vertex="1" parent="1">
          <mxGeometry x="644.87" y="399" width="109.25" height="142" as="geometry" />
        </mxCell>
        <mxCell id="LwIb5G4clstaogvx7fHu-15" value="View other users&#39; timelines" style="ellipse;whiteSpace=wrap;html=1;" vertex="1" parent="1">
          <mxGeometry x="92" y="367.5" width="100.5" height="60" as="geometry" />
        </mxCell>
        <mxCell id="LwIb5G4clstaogvx7fHu-16" value="React to cheep" style="ellipse;whiteSpace=wrap;html=1;" vertex="1" parent="1">
          <mxGeometry x="92" y="510" width="100.5" height="60" as="geometry" />
        </mxCell>
        <mxCell id="LwIb5G4clstaogvx7fHu-17" value="Unfollow &lt;br&gt;other users" style="ellipse;whiteSpace=wrap;html=1;" vertex="1" parent="1">
          <mxGeometry x="289" y="370" width="100.5" height="60" as="geometry" />
        </mxCell>
        <mxCell id="LwIb5G4clstaogvx7fHu-18" value="" style="endArrow=none;html=1;rounded=0;exitX=0;exitY=0.5;exitDx=0;exitDy=0;" edge="1" parent="1" source="LwIb5G4clstaogvx7fHu-10">
          <mxGeometry width="50" height="50" relative="1" as="geometry">
            <mxPoint x="349.5" y="328.5" as="sourcePoint" />
            <mxPoint x="69.5" y="258.5" as="targetPoint" />
          </mxGeometry>
        </mxCell>
        <mxCell id="LwIb5G4clstaogvx7fHu-19" value="" style="endArrow=none;html=1;rounded=0;exitX=0;exitY=0.5;exitDx=0;exitDy=0;" edge="1" parent="1" source="LwIb5G4clstaogvx7fHu-11">
          <mxGeometry width="50" height="50" relative="1" as="geometry">
            <mxPoint x="349.5" y="328.5" as="sourcePoint" />
            <mxPoint x="70" y="328.5" as="targetPoint" />
          </mxGeometry>
        </mxCell>
        <mxCell id="LwIb5G4clstaogvx7fHu-20" value="" style="endArrow=none;html=1;rounded=0;exitX=0;exitY=0.5;exitDx=0;exitDy=0;" edge="1" parent="1" source="LwIb5G4clstaogvx7fHu-15">
          <mxGeometry width="50" height="50" relative="1" as="geometry">
            <mxPoint x="349.5" y="328.5" as="sourcePoint" />
            <mxPoint x="70" y="397.5" as="targetPoint" />
          </mxGeometry>
        </mxCell>
        <mxCell id="LwIb5G4clstaogvx7fHu-21" value="" style="endArrow=none;html=1;rounded=0;exitX=0.25;exitY=1;exitDx=0;exitDy=0;entryX=0;entryY=0.5;entryDx=0;entryDy=0;" edge="1" parent="1" source="LwIb5G4clstaogvx7fHu-5" target="LwIb5G4clstaogvx7fHu-24">
          <mxGeometry width="50" height="50" relative="1" as="geometry">
            <mxPoint x="349.5" y="340" as="sourcePoint" />
            <mxPoint x="270" y="470" as="targetPoint" />
            <Array as="points">
              <mxPoint x="270" y="470" />
            </Array>
          </mxGeometry>
        </mxCell>
        <mxCell id="LwIb5G4clstaogvx7fHu-22" value="" style="endArrow=none;html=1;rounded=0;exitX=0;exitY=0.5;exitDx=0;exitDy=0;" edge="1" parent="1" source="LwIb5G4clstaogvx7fHu-13">
          <mxGeometry width="50" height="50" relative="1" as="geometry">
            <mxPoint x="349" y="370" as="sourcePoint" />
            <mxPoint x="269" y="330" as="targetPoint" />
          </mxGeometry>
        </mxCell>
        <mxCell id="LwIb5G4clstaogvx7fHu-23" value="" style="endArrow=none;html=1;rounded=0;exitX=0;exitY=0.5;exitDx=0;exitDy=0;" edge="1" parent="1" source="LwIb5G4clstaogvx7fHu-17">
          <mxGeometry width="50" height="50" relative="1" as="geometry">
            <mxPoint x="349" y="370" as="sourcePoint" />
            <mxPoint x="269" y="400" as="targetPoint" />
          </mxGeometry>
        </mxCell>
        <mxCell id="LwIb5G4clstaogvx7fHu-24" value="React to cheep" style="ellipse;whiteSpace=wrap;html=1;" vertex="1" parent="1">
          <mxGeometry x="289" y="440" width="100.5" height="60" as="geometry" />
        </mxCell>
        <mxCell id="LwIb5G4clstaogvx7fHu-25" value="Delete cheeps" style="ellipse;whiteSpace=wrap;html=1;" vertex="1" parent="1">
          <mxGeometry x="490" y="298.5" width="100.5" height="60" as="geometry" />
        </mxCell>
        <mxCell id="LwIb5G4clstaogvx7fHu-26" value="" style="endArrow=none;html=1;rounded=0;entryX=0.25;entryY=1;entryDx=0;entryDy=0;exitX=0;exitY=0.5;exitDx=0;exitDy=0;" edge="1" parent="1" source="LwIb5G4clstaogvx7fHu-28" target="LwIb5G4clstaogvx7fHu-6">
          <mxGeometry width="50" height="50" relative="1" as="geometry">
            <mxPoint x="470" y="400" as="sourcePoint" />
            <mxPoint x="470" y="320" as="targetPoint" />
            <Array as="points">
              <mxPoint x="470" y="470" />
            </Array>
          </mxGeometry>
        </mxCell>
        <mxCell id="LwIb5G4clstaogvx7fHu-27" value="React to cheep" style="ellipse;whiteSpace=wrap;html=1;" vertex="1" parent="1">
          <mxGeometry x="490" y="370" width="100.5" height="60" as="geometry" />
        </mxCell>
        <mxCell id="LwIb5G4clstaogvx7fHu-28" value="&#39;Forget Me&#39;" style="ellipse;whiteSpace=wrap;html=1;" vertex="1" parent="1">
          <mxGeometry x="490" y="440" width="100.5" height="60" as="geometry" />
        </mxCell>
        <mxCell id="LwIb5G4clstaogvx7fHu-29" value="" style="endArrow=none;html=1;rounded=0;exitX=0;exitY=0.5;exitDx=0;exitDy=0;" edge="1" parent="1" source="LwIb5G4clstaogvx7fHu-27">
          <mxGeometry width="50" height="50" relative="1" as="geometry">
            <mxPoint x="420" y="440" as="sourcePoint" />
            <mxPoint x="470" y="400" as="targetPoint" />
          </mxGeometry>
        </mxCell>
        <mxCell id="LwIb5G4clstaogvx7fHu-30" value="" style="endArrow=none;html=1;rounded=0;exitX=0;exitY=0.5;exitDx=0;exitDy=0;" edge="1" parent="1" source="LwIb5G4clstaogvx7fHu-25">
          <mxGeometry width="50" height="50" relative="1" as="geometry">
            <mxPoint x="420" y="438.5" as="sourcePoint" />
            <mxPoint x="470" y="328.5" as="targetPoint" />
          </mxGeometry>
        </mxCell>
        <mxCell id="LwIb5G4clstaogvx7fHu-31" value="" style="endArrow=none;html=1;rounded=0;exitX=0;exitY=0.5;exitDx=0;exitDy=0;exitPerimeter=0;entryX=1;entryY=0.5;entryDx=0;entryDy=0;" edge="1" parent="1" source="LwIb5G4clstaogvx7fHu-14" target="LwIb5G4clstaogvx7fHu-28">
          <mxGeometry width="50" height="50" relative="1" as="geometry">
            <mxPoint x="420" y="390" as="sourcePoint" />
            <mxPoint x="470" y="340" as="targetPoint" />
          </mxGeometry>
        </mxCell>
        <mxCell id="LwIb5G4clstaogvx7fHu-32" value="Log Out" style="ellipse;whiteSpace=wrap;html=1;" vertex="1" parent="1">
          <mxGeometry x="690" y="230" width="100.5" height="60" as="geometry" />
        </mxCell>
        <mxCell id="LwIb5G4clstaogvx7fHu-33" value="" style="endArrow=none;html=1;rounded=0;exitX=0.25;exitY=1;exitDx=0;exitDy=0;entryX=0;entryY=0.5;entryDx=0;entryDy=0;" edge="1" parent="1" source="LwIb5G4clstaogvx7fHu-7" target="LwIb5G4clstaogvx7fHu-32">
          <mxGeometry width="50" height="50" relative="1" as="geometry">
            <mxPoint x="420" y="340" as="sourcePoint" />
            <mxPoint x="470" y="290" as="targetPoint" />
            <Array as="points">
              <mxPoint x="670" y="260" />
            </Array>
          </mxGeometry>
        </mxCell>
        <mxCell id="LwIb5G4clstaogvx7fHu-34" value="Sort cheeps&lt;br&gt;(newest, oldest)" style="ellipse;whiteSpace=wrap;html=1;" vertex="1" parent="1">
          <mxGeometry x="289" y="230" width="100.5" height="60" as="geometry" />
        </mxCell>
        <mxCell id="LwIb5G4clstaogvx7fHu-35" value="" style="endArrow=none;html=1;rounded=0;exitX=0;exitY=0.5;exitDx=0;exitDy=0;" edge="1" parent="1" source="LwIb5G4clstaogvx7fHu-34">
          <mxGeometry width="50" height="50" relative="1" as="geometry">
            <mxPoint x="400" y="370" as="sourcePoint" />
            <mxPoint x="270" y="260" as="targetPoint" />
          </mxGeometry>
        </mxCell>
        <mxCell id="LwIb5G4clstaogvx7fHu-36" value="Sort cheeps&lt;br&gt;(newest, oldest)" style="ellipse;whiteSpace=wrap;html=1;" vertex="1" parent="1">
          <mxGeometry x="490" y="228.5" width="100.5" height="60" as="geometry" />
        </mxCell>
        <mxCell id="LwIb5G4clstaogvx7fHu-37" value="" style="endArrow=none;html=1;rounded=0;exitX=0;exitY=0.5;exitDx=0;exitDy=0;" edge="1" parent="1" source="LwIb5G4clstaogvx7fHu-36">
          <mxGeometry width="50" height="50" relative="1" as="geometry">
            <mxPoint x="400" y="370" as="sourcePoint" />
            <mxPoint x="470" y="259" as="targetPoint" />
          </mxGeometry>
        </mxCell>
        <mxCell id="LwIb5G4clstaogvx7fHu-38" value="Follow/Unfollow other users" style="ellipse;whiteSpace=wrap;html=1;" vertex="1" parent="1">
          <mxGeometry x="92" y="440" width="100.5" height="60" as="geometry" />
        </mxCell>
        <mxCell id="LwIb5G4clstaogvx7fHu-39" value="" style="endArrow=none;html=1;rounded=0;exitX=0;exitY=0.5;exitDx=0;exitDy=0;" edge="1" parent="1" source="LwIb5G4clstaogvx7fHu-38">
          <mxGeometry width="50" height="50" relative="1" as="geometry">
            <mxPoint x="400" y="370" as="sourcePoint" />
            <mxPoint x="70" y="470" as="targetPoint" />
          </mxGeometry>
        </mxCell>
      </root>
    </mxGraphModel>
  </diagram>
</mxfile>
